<svg xmlns="http://www.w3.org/2000/svg" viewBox="0 0 48 48" width="48" height="48">
  <!-- Blackjack: an ace and a jack, and a "21" badge -->
  <g transform="rotate(-14 16 26)">
    <rect x="5" y="8" width="21" height="29" rx="2" fill="#fff" stroke="#000" stroke-width="1.2"/>
    <text x="7.5" y="16" font-family="Arial, sans-serif" font-weight="bold" font-size="8">A</text>
    <path d="M15.5 21c2 3.5 6 5.5 6 9 0 2-1.5 3.2-3 3.2-1.1 0-2-.6-2.5-1.2.2 1.2.7 2 1.7 2.7h-4.4c1-.7 1.5-1.5 1.7-2.7-.5.6-1.4 1.2-2.5 1.2-1.5 0-3-1.2-3-3.2 0-3.5 4-5.5 6-9z"/>
  </g>
  <g transform="rotate(8 30 24)">
    <rect x="19" y="6" width="21" height="29" rx="2" fill="#fff" stroke="#000" stroke-width="1.2"/>
    <text x="21.5" y="14" font-family="Arial, sans-serif" font-weight="bold" font-size="8" fill="#d40000">J</text>
    <rect x="24" y="16" width="11" height="15" fill="#f2c200" stroke="#d40000" stroke-width="1"/>
    <circle cx="29.5" cy="21" r="2.6" fill="#fbe0b6" stroke="#000" stroke-width=".6"/>
    <path d="M25 31l4.5-6 4.5 6z" fill="#1d3fae"/>
  </g>
  <rect x="27" y="32" width="19" height="14" fill="#000" stroke="#f2c200" stroke-width="1.5"/>
  <text x="36.5" y="43.5" fill="#f2c200" font-family="Arial Black, Arial, sans-serif" font-weight="900" font-size="10" text-anchor="middle">21</text>
</svg>
