<svg xmlns="http://www.w3.org/2000/svg" viewBox="0 0 48 48" width="48" height="48">
  <!-- Casino 98: a stack of chips in front of a card, with a die -->
  <g transform="rotate(10 27 18)">
    <rect x="17" y="4" width="20" height="28" rx="2" fill="#fff" stroke="#000" stroke-width="1.2"/>
    <text x="19.5" y="12" font-family="Arial, sans-serif" font-weight="bold" font-size="7" fill="#d40000">A</text>
    <path d="M28 24c-2.4-2-4-3.4-4-5.2 0-1.3 1-2.2 2.1-2.2.9 0 1.6.5 1.9 1.3.3-.8 1-1.3 1.9-1.3 1.1 0 2.1.9 2.1 2.2 0 1.8-1.6 3.2-4 5.2z" fill="#d40000"/>
  </g>
  <g stroke="#000" stroke-width="1">
    <ellipse cx="15" cy="41" rx="11" ry="4" fill="#12923f"/>
    <ellipse cx="15" cy="37" rx="11" ry="4" fill="#d81e1e"/>
    <ellipse cx="15" cy="33" rx="11" ry="4" fill="#1a1a1a"/>
    <ellipse cx="15" cy="29" rx="11" ry="4" fill="#f2c200"/>
  </g>
  <ellipse cx="15" cy="29" rx="6" ry="2" fill="none" stroke="#8a5a00" stroke-dasharray="2 1.5"/>
  <rect x="31" y="31" width="14" height="14" rx="2.5" fill="#fafafa" stroke="#000" stroke-width="1.1"/>
  <circle cx="35" cy="35" r="1.5"/>
  <circle cx="38" cy="38" r="1.5"/>
  <circle cx="41" cy="41" r="1.5"/>
</svg>
